<svg width="15" height="15" viewBox="0 0 15 15" fill="none" xmlns="http://www.w3.org/2000/svg">
<path d="M11.3762 6.03247C11.4004 6.0155 11.4277 6.0055 11.457 6.00239L12.0835 5.93579C12.1011 5.93392 12.1098 5.95675 12.0957 5.96754C10.9416 6.84975 10.0677 7.50313 8.80394 8.53706C8.43903 8.83561 7.52447 8.91061 7.62623 8.83701C8.48505 8.06727 11.0421 6.26693 11.3762 6.03247Z" fill="#316CF6"/>
<path d="M10.9924 3.3759C11.3781 3.30604 12.406 3.68525 12.7912 3.79529C12.8791 3.82042 12.9852 4.15666 12.9717 4.2687C12.9705 4.27892 12.9665 4.28836 12.962 4.29759L12.3273 5.58651C12.3228 5.59574 12.3193 5.60544 12.3155 5.61503C12.2913 5.67736 12.2338 5.72103 12.1667 5.72657L11.7757 5.75887C11.7504 5.76096 11.3641 5.77954 11.3641 5.77954C11.3641 5.77954 7.82873 8.36682 7.3532 8.74041C7.30306 8.77979 6.67426 8.85687 6.61561 8.83211L4.72585 7.96557C4.57986 7.90394 4.83554 7.81188 4.98357 7.75538L9.86605 5.89311C9.96598 5.85496 10.009 5.7361 9.95459 5.64349C9.67377 5.16592 9.41119 4.83963 9.25363 4.66197C9.17869 4.57747 9.19058 4.44194 9.28465 4.37981C9.67186 4.12409 10.614 3.44447 10.9924 3.3759Z" fill="#316CF6"/>
<path d="M0.982324 1.12942L0.699476 0.790809C0.583241 0.651661 0.726736 0.447848 0.895596 0.51225L6.61879 2.69503C6.62973 2.6992 6.64023 2.70446 6.65011 2.71076C8.05507 3.60714 9.1756 5.01858 9.54832 5.51912C9.61692 5.61126 9.57691 5.74166 9.46973 5.78181L5.62117 7.22319C5.54871 7.25033 5.46714 7.22643 5.42045 7.16437L2.61219 3.43173L0.982324 1.12942Z" fill="#316CF6"/>
<path d="M12.7674 5.63126C12.6573 5.62775 12.5813 5.51007 12.6284 5.40981L13.0447 4.52448C13.0482 4.51714 13.0508 4.50945 13.0537 4.50184C13.0903 4.40256 13.2178 4.37402 13.2927 4.44874C13.2979 4.45391 13.3022 4.4599 13.3061 4.46609L13.9986 5.55676C14.0475 5.63386 13.9948 5.72482 13.9043 5.71664C13.6238 5.69128 13.124 5.64263 12.7674 5.63126Z" fill="#316CF6"/>
<path d="M5.84202 9.05495C5.87319 8.96982 5.94928 8.83957 5.86822 8.79997L5.03079 8.3792C4.83807 8.29139 4.6895 8.22371 4.57496 8.17153C4.38867 8.08666 4.09096 8.19292 3.99897 8.37681L1.83257 12.7072C1.8254 12.7215 1.82132 12.7363 1.81854 12.7521C1.77881 12.9782 1.38858 14.3526 1.35576 14.4945C1.35276 14.5075 1.36091 14.4946 1.36936 14.4843L5.84202 9.05495Z" fill="#316CF6"/>
<path d="M7.12871 9.07651C7.16386 9.0374 7.13405 8.97507 7.08177 8.97836L6.17465 9.03543C6.14245 9.03746 6.11251 9.05282 6.09194 9.07786L3.52921 12.1977C3.50904 12.2222 3.53569 12.2559 3.56355 12.2407C3.9111 12.0522 4.91508 11.4783 5.57892 10.8012L7.12871 9.07651Z" fill="#316CF6"/>
<path d="M0.5 4.95069C0.5 4.95069 1.88585 4.57609 3.31536 4.94843L4.21566 5.92908L5.26958 7.35381L4.69301 7.37886C4.6675 7.37997 4.64234 7.37263 4.62137 7.35797L3.28423 6.42325L0.5 4.95069Z" fill="#316CF6"/>
</svg>
